<?xml version="1.0" standalone="no"?>
<!DOCTYPE svg PUBLIC "-//W3C//DTD SVG 20010904//EN"
 "http://www.w3.org/TR/2001/REC-SVG-20010904/DTD/svg10.dtd">
<svg version="1.0" xmlns="http://www.w3.org/2000/svg"
 width="364.000000pt" height="138.000000pt" viewBox="0 0 364.000000 138.000000"
 preserveAspectRatio="xMidYMid meet">

<g transform="translate(0.000000,138.000000) scale(0.100000,-0.100000)"
fill="#000000" stroke="none">
<path d="M2663 1284 c-18 -8 -33 -20 -33 -27 0 -9 -2 -9 -9 1 -6 11 -14 9 -35
-10 -23 -20 -28 -33 -33 -98 -3 -41 -10 -81 -15 -87 -6 -8 -7 -28 -3 -50 5
-21 9 -44 11 -51 8 -39 15 -18 13 38 -2 76 1 100 19 118 6 7 12 18 12 25 0 6
-7 2 -15 -9 -14 -19 -14 -19 -15 3 0 12 4 23 8 25 4 2 18 20 31 40 21 36 64
58 112 58 23 0 30 11 18 27 -14 16 -25 16 -66 -3z"/>
<path d="M2742 1280 c15 -23 28 -26 28 -6 0 8 -7 17 -16 20 -24 9 -25 8 -12
-14z"/>
<path d="M3019 1254 c-23 -43 -23 -46 -6 -58 9 -7 17 -23 17 -36 0 -17 4 -20
18 -14 9 4 33 9 52 10 19 1 40 2 46 3 15 1 56 103 46 113 -7 7 -108 28 -138
28 -6 0 -22 -21 -35 -46z m114 6 c23 -21 -45 -92 -72 -76 -16 10 -22 56 -11
77 9 16 17 19 43 14 18 -4 36 -11 40 -15z"/>
<path d="M2832 1285 c4 -4 0 -14 -10 -21 -9 -7 -12 -14 -6 -14 6 0 17 6 23 14
9 11 9 16 -1 22 -7 4 -10 4 -6 -1z"/>
<path d="M2833 1242 c-9 -6 -7 -11 7 -20 16 -10 20 -10 21 0 0 7 4 4 9 -7 6
-14 9 -15 9 -4 1 14 -17 39 -28 39 -4 0 -11 -4 -18 -8z"/>
<path d="M1173 1193 c-10 -16 -26 -35 -35 -43 -20 -18 -14 -70 8 -70 12 0 12
-4 2 -20 -7 -11 -20 -20 -28 -20 -12 0 -13 -2 -1 -9 7 -5 11 -13 9 -17 -3 -5
-2 -18 3 -29 6 -15 8 -11 8 18 1 31 4 38 18 35 9 -2 20 -14 23 -28 5 -21 7
-22 13 -7 4 10 17 17 34 17 24 -1 25 -2 11 -11 -21 -12 -24 -45 -5 -52 22 -8
40 9 34 33 -3 14 0 23 9 27 9 3 13 12 9 22 -4 11 -3 13 4 6 6 -6 11 -43 13
-83 1 -39 6 -72 10 -72 4 0 5 9 3 21 -3 16 0 19 12 14 15 -5 15 -4 0 13 -31
34 -16 85 28 96 14 4 25 11 25 16 0 25 -45 110 -56 106 -7 -3 -20 4 -30 15 -9
10 -25 19 -34 19 -10 0 -23 7 -30 15 -19 22 -37 18 -57 -12z m70 -29 c24 -9
22 -51 -3 -59 -11 -3 -24 -3 -30 0 -5 3 -10 -2 -10 -12 -1 -17 -2 -17 -15 1
-20 26 -19 50 0 42 11 -4 15 2 15 20 0 17 4 24 13 20 6 -3 20 -9 30 -12z"/>
<path d="M2624 1095 c4 -17 1 -24 -13 -28 -17 -4 -18 -2 -8 14 6 10 8 21 4 25
-10 11 -14 3 -22 -40 -5 -27 -4 -37 3 -32 6 3 13 2 17 -4 9 -15 25 -12 25 4 0
8 5 18 12 22 7 4 8 3 4 -4 -4 -7 -1 -12 7 -12 22 0 40 69 20 71 -55 6 -54 6
-49 -16z"/>
<path d="M2710 1098 c0 -7 9 -24 19 -38 16 -20 22 -22 35 -11 8 7 20 10 26 6
5 -3 10 -3 10 0 0 3 -15 12 -32 20 -19 8 -26 14 -15 15 30 0 18 20 -13 20 -17
0 -30 -5 -30 -12z"/>
<path d="M2923 1055 c3 -7 -1 -34 -9 -60 -7 -26 -11 -51 -9 -56 3 -4 -3 -6
-14 -4 -13 2 -21 -3 -25 -18 -10 -38 -6 -82 9 -103 8 -12 11 -24 8 -28 -4 -4
4 -3 17 2 14 5 32 6 40 2 8 -4 56 -15 105 -25 180 -33 289 -100 314 -192 33
-116 -20 -333 -137 -565 -2 -5 54 -8 125 -8 l129 0 38 118 c86 271 87 459 5
579 -24 35 -34 42 -41 32 -7 -10 -8 -8 -3 7 4 17 -2 28 -27 48 -30 23 -34 24
-50 10 -19 -18 -40 -10 -36 14 2 12 -3 16 -17 14 -15 -2 -17 0 -6 6 18 13 -2
24 -26 15 -16 -6 -16 -5 -4 10 15 18 24 15 65 -26 10 -10 21 -16 24 -12 3 3
-7 17 -23 30 -32 25 -95 64 -83 50 4 -4 2 -15 -5 -23 -10 -13 -9 -14 2 -7 8 5
12 4 8 -1 -5 -9 -55 -6 -197 11 -60 8 -87 28 -110 86 -8 19 -19 37 -24 41 -8
5 -8 13 0 26 10 16 8 20 -18 30 -24 9 -29 8 -25 -3z m382 -225 c4 -6 -7 -10
-27 -10 -25 0 -29 3 -18 10 19 13 37 13 45 0z m125 -80 c0 -5 -4 -10 -10 -10
-5 0 -10 5 -10 10 0 6 5 10 10 10 6 0 10 -4 10 -10z m84 -76 c3 -8 2 -12 -4
-9 -6 3 -10 10 -10 16 0 14 7 11 14 -7z"/>
<path d="M2980 1030 c-8 -5 -10 -10 -5 -10 6 0 17 5 25 10 8 5 11 10 5 10 -5
0 -17 -5 -25 -10z"/>
<path d="M2655 1019 c-4 -6 -5 -12 -2 -15 2 -3 7 2 10 11 7 17 1 20 -8 4z"/>
<path d="M1100 1005 c0 -8 2 -15 4 -15 2 0 6 7 10 15 3 8 1 15 -4 15 -6 0 -10
-7 -10 -15z"/>
<path d="M1360 1000 c-12 -8 -10 -10 8 -10 13 0 20 4 17 10 -7 12 -6 12 -25 0z"/>
<path d="M531 984 c0 -11 3 -14 6 -6 3 7 2 16 -1 19 -3 4 -6 -2 -5 -13z"/>
<path d="M2519 993 c-1 -5 -3 -17 -4 -28 -1 -11 -3 -25 -3 -31 -1 -6 -19 -11
-39 -11 -80 -1 -89 -3 -73 -12 8 -6 17 -8 21 -5 4 2 5 -6 1 -18 -4 -16 -7 -18
-10 -8 -9 28 -35 37 -106 39 -39 1 -68 0 -65 -3 3 -3 35 -6 73 -7 37 -1 63 -5
58 -8 -5 -3 -12 -13 -15 -21 -4 -12 -6 -12 -6 2 -1 17 -34 20 -59 4 -7 -4 -12
-2 -12 4 0 6 -4 9 -10 5 -5 -3 -7 -13 -3 -23 4 -13 2 -12 -10 3 -18 25 -94 28
-90 4 2 -10 -9 -14 -39 -16 -22 0 -44 -6 -48 -12 -3 -7 -13 -9 -22 -6 -8 3
-21 -1 -28 -10 -7 -8 -23 -15 -37 -15 -13 0 -31 -7 -39 -15 -17 -17 -34 -20
-34 -5 0 5 -21 0 -46 -10 -54 -24 -58 -24 -51 -7 3 7 -3 18 -13 25 -23 14 -33
4 -15 -15 22 -22 18 -33 -12 -34 -24 0 -25 -2 -9 -8 15 -6 16 -9 5 -13 -20 -8
-55 7 -62 26 -4 9 -13 13 -20 10 -11 -4 -13 2 -11 23 4 24 3 25 -5 8 -8 -17
-10 -18 -10 -2 -1 18 -16 23 -25 8 -9 -14 -176 -13 -176 2 0 7 -5 4 -11 -6 -6
-9 -15 -15 -20 -11 -6 3 -42 6 -82 5 -46 0 -74 4 -79 12 -6 9 -8 9 -8 0 0 -7
-9 -13 -20 -13 -19 0 -25 15 -21 49 2 7 -3 10 -9 6 -6 -4 -10 -16 -8 -28 2
-14 -3 -23 -14 -25 -13 -2 -18 3 -19 20 l0 23 -11 -22 c-13 -28 -53 -31 -80
-6 -18 16 -18 16 -12 0 4 -11 1 -17 -7 -17 -21 0 -36 13 -42 35 -4 15 -5 14
-6 -7 -1 -25 -5 -28 -33 -28 -53 1 -68 -3 -68 -16 0 -7 -10 -14 -22 -16 -12
-2 -23 -10 -25 -18 -4 -13 -3 -13 5 -1 9 12 13 12 26 2 8 -7 37 -12 63 -11 83
3 100 1 83 -10 -8 -5 -10 -10 -4 -10 15 0 36 25 27 33 -3 4 -3 7 1 7 4 0 14
-7 22 -15 11 -11 21 -12 33 -5 10 5 21 7 24 4 6 -6 137 -6 247 0 30 1 60 -1
66 -6 7 -5 18 -2 28 7 9 9 16 12 16 6 0 -5 17 -11 38 -13 28 -2 37 -7 36 -20
-1 -10 2 -15 7 -12 5 3 9 -6 9 -20 0 -14 -4 -26 -10 -26 -5 0 -7 7 -3 16 5 14
2 16 -21 10 -16 -4 -33 -2 -40 3 -9 8 -18 6 -32 -4 -18 -14 -17 -15 9 -9 15 3
27 2 27 -3 0 -6 -15 -8 -32 -6 -18 2 -50 4 -71 4 -31 1 -36 4 -26 16 10 12 7
13 -20 8 -26 -4 -33 -2 -41 17 -6 16 -9 18 -9 6 -1 -21 -20 -27 -48 -17 -25 9
-29 5 -31 -35 -1 -17 5 -35 15 -43 13 -11 10 -10 -9 1 -30 18 -73 22 -63 6 4
-6 11 -8 16 -5 5 4 9 2 9 -3 0 -6 -7 -12 -15 -16 -8 -3 -14 0 -12 7 1 7 -6 11
-15 9 -9 -1 -19 2 -23 8 -3 5 -30 9 -58 8 -41 -1 -44 -2 -17 -5 19 -3 39 -11
43 -19 5 -8 14 -11 20 -8 7 4 7 1 -1 -7 -11 -12 -15 -11 -23 4 -12 21 -26 22
-26 2 0 -8 5 -15 10 -15 5 0 7 -7 4 -15 -8 -19 18 -68 40 -77 14 -5 12 -7 -8
-7 -15 -1 -30 -8 -33 -18 -6 -14 -9 -14 -22 5 -8 12 -20 19 -26 16 -6 -4 -40
-6 -76 -5 -56 2 -64 0 -58 -14 3 -9 2 -14 -3 -10 -5 3 -12 -1 -14 -7 -3 -7 -6
-2 -6 11 -1 22 -4 23 -38 18 -20 -4 -40 -12 -44 -19 -12 -19 8 -22 27 -4 18
19 30 20 40 4 4 -7 3 -8 -5 -4 -6 4 -14 0 -17 -8 -4 -10 -18 -16 -35 -16 -24
0 -29 4 -29 24 0 20 -6 25 -35 28 -29 3 -35 1 -35 -14 0 -10 -4 -18 -10 -18
-5 0 -10 6 -10 14 0 11 -20 15 -86 18 -77 3 -85 1 -80 -14 2 -11 -1 -18 -10
-18 -8 0 -14 7 -14 14 0 11 -14 16 -47 18 -31 2 -48 8 -50 18 -4 12 -3 12 5 2
11 -16 94 -11 99 5 2 6 -3 17 -11 25 -11 12 -12 18 -3 28 9 10 9 12 -4 7 -13
-4 -16 1 -15 23 0 16 4 26 8 24 5 -3 8 -1 8 4 0 5 -27 9 -60 8 -42 -1 -60 3
-60 12 0 6 -4 12 -10 12 -5 0 -10 -7 -10 -15 0 -8 5 -15 10 -15 6 0 10 -7 10
-15 0 -9 7 -30 16 -46 8 -17 13 -33 10 -36 -3 -3 -14 15 -26 40 l-21 45 -60 4
c-32 1 -59 0 -59 -3 0 -3 -30 -9 -67 -12 -116 -10 -121 -17 -78 -131 43 -113
56 -124 131 -104 39 11 44 10 74 -16 20 -16 39 -25 49 -21 11 4 10 1 -4 -13
-34 -31 -81 -35 -116 -10 -21 16 -44 22 -83 22 -30 1 -52 -2 -49 -6 2 -5 18
-8 34 -8 16 0 31 -6 34 -12 2 -7 21 -79 42 -161 l38 -147 877 0 877 0 -24 43
c-32 57 -58 120 -47 113 6 -3 13 1 16 10 3 8 2 12 -4 9 -5 -3 -3 7 5 22 8 15
15 33 15 39 0 19 -26 64 -33 57 -4 -3 -7 1 -7 10 0 9 -7 17 -16 17 -10 0 -14
5 -10 16 3 8 2 12 -4 9 -6 -3 -10 1 -10 10 0 24 -22 27 -63 10 -45 -19 -67
-19 -67 -2 0 15 41 37 70 37 15 0 17 6 13 38 -7 52 13 143 40 183 33 49 150
104 282 133 131 29 158 33 295 41 58 3 115 8 128 11 l24 5 -21 35 c-12 19 -21
46 -21 60 0 13 -3 23 -7 23 -22 -4 -32 3 -27 16 4 8 2 15 -4 15 -6 0 -8 9 -5
20 3 11 3 20 -1 20 -3 0 -7 -3 -7 -7z m-66 -103 c-3 -12 -8 -19 -11 -16 -5 6
5 36 12 36 2 0 2 -9 -1 -20z m-253 -20 c0 -5 -4 -10 -10 -10 -5 0 -10 5 -10
10 0 6 5 10 10 10 6 0 10 -4 10 -10z m-1142 -104 c-7 -8 -15 -12 -17 -11 -5 6
10 25 20 25 5 0 4 -6 -3 -14z m656 -22 c6 -17 -9 -44 -25 -44 -5 0 -9 9 -9 20
0 12 -7 20 -17 21 -15 0 -15 2 2 9 30 13 42 12 49 -6z m-421 -57 c4 3 7 1 7
-6 0 -8 5 -7 16 4 19 18 27 15 18 -8 -7 -19 -42 -14 -63 10 -15 15 -15 16 0 5
9 -6 19 -9 22 -5z m82 -16 c-8 -14 -35 -14 -35 0 0 6 7 9 15 5 8 -3 15 0 15 6
0 6 3 9 6 5 3 -3 3 -10 -1 -16z m190 -1 c-3 -5 -12 -10 -18 -10 -7 0 -6 4 3
10 19 12 23 12 15 0z m-285 -20 c0 -5 -5 -10 -11 -10 -5 0 -7 5 -4 10 3 6 8
10 11 10 2 0 4 -4 4 -10z m-859 -40 c6 0 7 5 4 10 -3 6 1 10 9 10 9 0 16 -5
16 -11 0 -6 6 -9 13 -6 14 5 23 -68 9 -77 -5 -3 -6 8 -4 25 3 18 0 29 -7 29
-7 0 -9 -5 -5 -12 4 -7 3 -8 -4 -4 -6 4 -9 13 -5 22 4 12 0 14 -21 8 -21 -5
-26 -3 -25 12 0 11 3 14 6 7 2 -7 9 -13 14 -13z m759 -4 c0 -2 -8 -10 -17 -17
-16 -13 -17 -12 -4 4 13 16 21 21 21 13z m-840 -45 c23 -45 0 -151 -34 -151
-8 0 -36 15 -62 33 -82 54 -85 116 -8 128 74 12 93 10 104 -10z m1211 2 c12
-16 12 -17 -2 -6 -9 7 -20 9 -24 5 -5 -4 -5 -1 -1 6 9 16 11 15 27 -5z m36 2
c0 -8 -4 -12 -9 -9 -5 3 -6 10 -3 15 9 13 12 11 12 -6z m73 11 c0 -2 -8 -10
-17 -17 -16 -13 -17 -12 -4 4 13 16 21 21 21 13z m48 -36 c-7 -10 -14 -17 -17
-15 -4 4 18 35 25 35 2 0 -1 -9 -8 -20z m-148 -11 c0 -5 -4 -9 -10 -9 -5 0
-10 6 -10 13 0 8 -3 8 -9 -2 -5 -8 -7 -20 -4 -28 4 -9 0 -11 -11 -7 -21 8 -20
30 1 42 18 11 43 5 43 -9z m30 1 c0 -5 -4 -10 -10 -10 -5 0 -10 5 -10 10 0 6
5 10 10 10 6 0 10 -4 10 -10z m26 -11 c1 -5 2 -21 3 -36 1 -20 4 -24 10 -14 5
8 11 9 15 3 7 -12 -17 -23 -30 -14 -6 4 -11 25 -13 47 -1 21 2 36 6 31 4 -4 9
-12 9 -17z m34 11 c0 -5 -4 -10 -10 -10 -5 0 -10 5 -10 10 0 6 5 10 10 10 6 0
10 -4 10 -10z m110 0 c0 -5 -5 -10 -11 -10 -5 0 -7 5 -4 10 3 6 8 10 11 10 2
0 4 -4 4 -10z m30 0 c0 -5 -4 -10 -10 -10 -5 0 -10 5 -10 10 0 6 5 10 10 10 6
0 10 -4 10 -10z m-230 -30 c0 -5 -4 -10 -10 -10 -5 0 -10 5 -10 10 0 6 5 10
10 10 6 0 10 -4 10 -10z m30 0 c0 -5 -4 -10 -10 -10 -5 0 -10 5 -10 10 0 6 5
10 10 10 6 0 10 -4 10 -10z m55 0 c3 -5 1 -10 -4 -10 -6 0 -11 5 -11 10 0 6 2
10 4 10 3 0 8 -4 11 -10z m115 0 c0 -5 -2 -10 -4 -10 -3 0 -8 5 -11 10 -3 6
-1 10 4 10 6 0 11 -4 11 -10z m30 0 c0 -5 -4 -10 -10 -10 -5 0 -10 5 -10 10 0
6 5 10 10 10 6 0 10 -4 10 -10z m-230 -30 c0 -5 -2 -10 -4 -10 -3 0 -8 5 -11
10 -3 6 -1 10 4 10 6 0 11 -4 11 -10z m30 0 c0 -5 -4 -10 -10 -10 -5 0 -10 5
-10 10 0 6 5 10 10 10 6 0 10 -4 10 -10z m170 0 c0 -5 -2 -10 -4 -10 -3 0 -8
5 -11 10 -3 6 -1 10 4 10 6 0 11 -4 11 -10z m30 0 c0 -5 -4 -10 -10 -10 -5 0
-10 5 -10 10 0 6 5 10 10 10 6 0 10 -4 10 -10z m-1013 -6 c-3 -3 -12 -4 -19
-1 -8 3 -5 6 6 6 11 1 17 -2 13 -5z m770 -27 c0 -8 -6 -14 -14 -14 -9 0 -10 4
-2 14 6 7 12 13 14 13 1 0 2 -6 2 -13z m59 1 c4 -7 4 -10 -1 -6 -4 4 -15 2
-24 -5 -14 -11 -14 -10 -2 6 16 20 18 21 27 5z m-1189 -18 c-27 -22 -37 -25
-37 -12 0 5 10 14 23 20 35 17 42 14 14 -8z m513 -19 c0 -5 -7 -12 -16 -15
-14 -5 -15 -4 -4 9 14 17 20 19 20 6z m1 -44 c-10 -9 -11 -8 -5 6 3 10 9 15
12 12 3 -3 0 -11 -7 -18z m-336 -19 c37 -1 70 3 73 8 11 14 32 15 32 2 0 -15
171 -19 181 -4 11 14 29 -3 23 -22 -5 -16 -5 -16 6 1 6 9 20 17 31 17 15 0 20
-6 17 -22 -2 -18 -10 -23 -35 -25 -25 -1 -33 3 -34 15 0 14 -2 13 -9 -3 -8
-19 -8 -19 -18 5 -10 23 -11 23 -11 4 -1 -19 -7 -22 -41 -21 -26 1 -40 5 -40
14 0 20 -20 16 -21 -4 -1 -17 -2 -17 -6 0 -2 9 -9 17 -14 17 -5 0 -9 -8 -9
-17 0 -15 -2 -16 -10 -3 -9 13 -10 13 -11 0 0 -10 -3 -8 -9 5 -8 18 -9 18 -9
2 -1 -14 -8 -17 -32 -15 -16 2 -34 10 -39 18 -8 13 -10 13 -10 -1 0 -13 -13
-16 -80 -15 -44 1 -80 2 -80 3 0 1 5 14 12 28 12 27 33 33 41 13 3 -9 7 -7 12
5 5 13 10 15 15 7 4 -7 35 -12 75 -12z m438 2 c3 -11 11 -20 19 -20 10 0 9 3
-2 10 -13 8 -12 10 3 10 12 0 17 -8 17 -26 0 -21 -4 -25 -20 -21 -11 3 -23 1
-26 -4 -3 -5 -13 -5 -25 1 -22 13 -26 50 -4 50 8 0 15 5 15 10 0 18 18 10 23
-10z m850 -22 c-15 -25 -11 -38 13 -38 27 0 28 -3 14 -31 -8 -14 -21 -19 -48
-18 -53 1 -75 12 -79 39 -2 13 -9 28 -16 32 -7 5 1 8 21 8 17 0 32 5 32 10 0
6 16 10 36 10 26 0 33 -3 27 -12z m-436 -30 c-3 -8 -6 -5 -6 6 -1 11 2 17 5
13 3 -3 4 -12 1 -19z m-677 -68 c0 -17 -7 -19 -55 -17 -45 2 -55 5 -55 20 0
25 -18 21 -23 -5 -4 -20 -4 -19 -6 5 -1 21 4 27 19 27 11 0 20 -6 21 -12 0
-10 2 -10 6 0 2 6 11 12 19 12 8 0 14 4 14 9 0 5 14 3 30 -5 17 -9 30 -23 30
-34z m667 44 c-3 -3 -12 -4 -19 -1 -8 3 -5 6 6 6 11 1 17 -2 13 -5z m-454 -35
c-5 -19 -4 -20 15 -8 15 10 18 16 9 21 -8 5 -7 8 6 8 11 0 17 -8 17 -24 0 -21
-5 -25 -30 -24 -23 1 -30 6 -30 21 0 20 0 20 -23 -1 -31 -29 -102 -27 -102 3
0 18 7 20 58 21 32 1 60 4 64 7 11 12 21 -3 16 -24z m-413 -9 c0 -31 -16 -48
-31 -33 -6 6 -4 15 6 23 17 14 20 30 5 30 -5 0 -10 -7 -10 -16 0 -8 -4 -12
-10 -9 -5 3 -10 1 -10 -4 0 -6 -8 -11 -17 -11 -15 0 -16 2 -3 10 9 6 10 10 3
10 -6 0 -15 -4 -18 -10 -3 -5 -16 -10 -28 -9 -20 0 -21 1 -3 8 18 7 18 8 2 14
-32 13 -7 24 54 25 59 0 60 0 60 -28z m30 -10 c5 0 11 10 13 23 4 18 5 17 6
-6 1 -22 -3 -28 -16 -25 -10 2 -18 12 -19 23 -1 15 0 16 3 3 3 -10 8 -18 13
-18z m228 12 c3 -17 -2 -22 -17 -22 -25 0 -29 30 -3 31 15 0 14 2 -3 10 l-20
9 20 -3 c12 -1 21 -11 23 -25z m942 -21 c35 -33 36 -38 13 -63 -14 -16 -34
-18 -190 -18 -160 0 -175 2 -193 20 -24 24 -25 47 -3 72 14 16 34 18 180 18
l163 0 30 -29z m-1268 -32 c2 -6 23 -11 47 -11 38 1 42 -2 39 -21 -3 -19 -10
-22 -65 -24 -43 -1 -65 2 -73 12 -14 16 -5 35 16 35 8 0 14 5 14 10 0 14 17
13 22 -1z m165 -27 c-2 -20 -8 -27 -22 -27 -23 0 -34 43 -14 55 21 13 38 0 36
-28z m38 18 c17 0 25 -23 15 -40 -6 -10 -9 -6 -12 11 l-5 24 -11 -25 c-10 -24
-11 -23 -11 15 1 22 3 34 6 28 2 -7 11 -13 18 -13z m109 -4 c18 4 25 1 29 -15
3 -12 2 -21 -1 -22 -43 -7 -83 -6 -87 1 -3 5 0 20 7 35 10 21 13 23 20 10 6
-10 17 -13 32 -9z m86 2 c7 -18 9 -19 9 -5 1 10 9 17 21 17 15 0 20 -7 20 -25
0 -29 -28 -45 -41 -24 -7 11 -9 11 -9 1 0 -22 -17 -4 -22 23 -5 22 -1 35 9 35
2 0 8 -10 13 -22z m110 -29 c0 -27 -20 -24 -21 4 l0 22 -9 -22 c-13 -33 -20
-28 -20 12 l0 35 25 -16 c14 -9 25 -25 25 -35z"/>
<path d="M990 321 c0 -6 5 -13 10 -16 6 -3 10 1 10 9 0 9 -4 16 -10 16 -5 0
-10 -4 -10 -9z"/>
<path d="M690 225 c0 -8 5 -15 10 -15 6 0 10 7 10 15 0 8 -4 15 -10 15 -5 0
-10 -7 -10 -15z"/>
<path d="M738 233 c7 -3 16 -2 19 1 4 3 -2 6 -13 5 -11 0 -14 -3 -6 -6z"/>
<path d="M908 213 c7 -3 16 -2 19 1 4 3 -2 6 -13 5 -11 0 -14 -3 -6 -6z"/>
<path d="M465 140 c-3 -5 -1 -10 4 -10 6 0 11 5 11 10 0 6 -2 10 -4 10 -3 0
-8 -4 -11 -10z"/>
<path d="M2635 981 c-12 -11 -3 -31 13 -31 14 0 15 -2 2 -10 -8 -5 -19 -5 -25
0 -7 5 -10 -7 -10 -36 0 -24 1 -40 3 -35 1 4 15 6 30 4 19 -3 23 -2 13 5 -25
18 -1 32 55 32 31 0 54 4 54 11 0 5 -4 8 -9 4 -6 -3 -28 -3 -50 1 -36 6 -39 9
-30 25 5 11 16 19 24 19 8 0 15 4 15 8 0 9 -77 11 -85 3z"/>
<path d="M3127 979 c7 -7 15 -10 18 -7 3 3 -2 9 -12 12 -14 6 -15 5 -6 -5z"/>
<path d="M705 960 c-3 -6 1 -7 9 -4 18 7 21 14 7 14 -6 0 -13 -4 -16 -10z"/>
<path d="M990 960 c-9 -6 -10 -10 -3 -10 6 0 15 5 18 10 8 12 4 12 -15 0z"/>
<path d="M1358 963 c7 -3 16 -2 19 1 4 3 -2 6 -13 5 -11 0 -14 -3 -6 -6z"/>
<path d="M1560 966 c0 -2 7 -7 16 -10 8 -3 12 -2 9 4 -6 10 -25 14 -25 6z"/>
<path d="M1181 948 c-1 -17 36 -45 46 -35 2 3 -5 8 -16 12 -11 3 -22 14 -24
23 -4 16 -5 16 -6 0z"/>
<path d="M2426 952 c-3 -5 -19 -8 -35 -6 -17 2 -32 0 -35 -4 -3 -4 13 -7 35
-6 40 1 57 9 47 20 -3 3 -9 1 -12 -4z"/>
<path d="M2455 950 c-3 -5 -1 -10 4 -10 6 0 11 5 11 10 0 6 -2 10 -4 10 -3 0
-8 -4 -11 -10z"/>
<path d="M2490 950 c0 -5 5 -10 11 -10 5 0 7 5 4 10 -3 6 -8 10 -11 10 -2 0
-4 -4 -4 -10z"/>
<path d="M3197 936 c-4 -10 1 -12 14 -9 23 6 24 9 5 16 -8 3 -17 0 -19 -7z"/>
<path d="M1267 919 c7 -7 15 -10 18 -7 3 3 -2 9 -12 12 -14 6 -15 5 -6 -5z"/>
<path d="M496 908 c3 -5 10 -6 15 -3 13 9 11 12 -6 12 -8 0 -12 -4 -9 -9z"/>
<path d="M3196 898 c3 -5 10 -6 15 -3 13 9 11 12 -6 12 -8 0 -12 -4 -9 -9z"/>
<path d="M2000 870 c0 -5 5 -10 11 -10 5 0 7 5 4 10 -3 6 -8 10 -11 10 -2 0
-4 -4 -4 -10z"/>
<path d="M550 850 c0 -13 18 -22 24 -11 3 5 -1 11 -9 15 -8 3 -15 1 -15 -4z"/>
<path d="M748 853 c7 -3 16 -2 19 1 4 3 -2 6 -13 5 -11 0 -14 -3 -6 -6z"/>
<path d="M1305 851 c-3 -5 2 -11 10 -15 8 -3 17 -1 20 3 3 5 -2 11 -10 15 -8
3 -17 1 -20 -3z"/>
<path d="M1378 853 c7 -3 16 -2 19 1 4 3 -2 6 -13 5 -11 0 -14 -3 -6 -6z"/>
<path d="M457 843 c-4 -3 -7 -17 -7 -30 0 -14 -6 -23 -15 -23 -8 0 -15 -4 -15
-10 0 -12 20 -13 39 -1 16 10 51 3 51 -11 0 -5 -9 -4 -20 2 -16 9 -20 8 -20
-6 0 -10 -5 -14 -15 -10 -11 4 -15 -1 -15 -17 0 -16 3 -18 9 -9 6 10 26 13 70
10 44 -2 62 1 66 10 4 11 8 10 20 -2 9 -8 23 -12 31 -9 9 3 20 0 25 -8 6 -10
9 -10 9 -1 0 6 12 12 28 12 21 0 24 2 12 10 -13 8 -12 10 3 10 9 0 17 -4 17
-10 0 -16 22 -12 36 8 13 16 14 16 8 0 -5 -14 -1 -18 17 -17 13 1 29 1 34 -1
23 -6 33 1 41 28 12 42 15 79 5 63 -5 -7 -14 -10 -20 -7 -7 5 -10 2 -9 -6 2
-10 -34 -13 -179 -14 -183 -1 -188 0 -184 34 2 13 -11 16 -22 5z m120 -69 c-3
-3 -12 -4 -19 -1 -8 3 -5 6 6 6 11 1 17 -2 13 -5z"/>
<path d="M1110 842 c0 -5 7 -9 15 -9 8 0 15 4 15 9 0 4 -7 8 -15 8 -8 0 -15
-4 -15 -8z"/>
<path d="M1497 839 c7 -7 15 -10 18 -7 3 3 -2 9 -12 12 -14 6 -15 5 -6 -5z"/>
<path d="M1645 840 c-8 -13 5 -13 25 0 13 8 13 10 -2 10 -9 0 -20 -4 -23 -10z"/>
<path d="M1755 820 c-3 -5 -1 -10 4 -10 6 0 11 5 11 10 0 6 -2 10 -4 10 -3 0
-8 -4 -11 -10z"/>
<path d="M3370 800 c0 -5 5 -10 10 -10 6 0 10 5 10 10 0 6 -4 10 -10 10 -5 0
-10 -4 -10 -10z"/>
<path d="M1775 780 c-3 -5 -1 -10 4 -10 6 0 11 5 11 10 0 6 -2 10 -4 10 -3 0
-8 -4 -11 -10z"/>
<path d="M2660 777 c1 -40 62 -51 68 -12 2 16 -4 20 -33 22 -23 2 -35 -1 -35
-10z"/>
<path d="M2620 769 c0 -5 -4 -8 -9 -5 -13 9 -1 -73 17 -114 l16 -35 4 33 c3
32 17 43 25 20 2 -7 8 -9 13 -5 5 4 4 11 -1 15 -6 4 -20 28 -33 55 -23 47 -32
57 -32 36z"/>
<path d="M154 703 c1 -44 5 -58 16 -59 8 0 10 1 3 3 -7 2 -14 28 -16 59 l-4
54 1 -57z"/>
<path d="M406 712 c-3 -5 1 -9 9 -9 8 0 12 4 9 9 -3 4 -7 8 -9 8 -2 0 -6 -4
-9 -8z"/>
<path d="M1129 711 c-5 -15 -51 -23 -59 -10 -4 6 -12 3 -21 -7 -9 -12 -10 -15
-1 -10 6 4 12 2 12 -4 0 -7 6 -8 18 -2 9 5 32 9 50 8 19 0 36 3 39 8 4 5 1 6
-5 2 -6 -3 -15 1 -20 10 -6 11 -11 12 -13 5z"/>
<path d="M2903 680 c0 -25 2 -35 4 -22 2 12 2 32 0 45 -2 12 -4 2 -4 -23z"/>
<path d="M460 700 c-8 -6 -13 -10 -10 -10 3 -1 21 -3 41 -6 21 -3 39 -1 43 4
3 5 -5 8 -17 7 -12 -1 -27 1 -32 6 -6 4 -17 4 -25 -1z"/>
<path d="M716 698 c4 -6 -1 -8 -15 -3 -17 5 -21 2 -20 -17 0 -16 2 -19 7 -8 7
16 59 20 80 7 8 -6 12 -1 11 15 0 13 -3 18 -5 11 -4 -8 -14 -9 -35 -3 -20 6
-27 5 -23 -2z"/>
<path d="M1215 700 c-4 -6 -10 -8 -14 -6 -4 3 -14 -11 -23 -30 -9 -18 -12 -34
-7 -34 4 0 11 10 15 22 9 31 36 50 46 35 6 -9 8 -9 8 0 0 16 -17 26 -25 13z"/>
<path d="M1466 695 c-3 -8 -1 -15 4 -15 6 0 10 7 10 15 0 8 -2 15 -4 15 -2 0
-6 -7 -10 -15z"/>
<path d="M560 685 c-6 -8 -10 -20 -7 -27 4 -8 6 -7 6 4 1 9 9 22 19 27 9 6 12
11 6 11 -6 0 -17 -7 -24 -15z"/>
<path d="M599 682 c-13 -15 -12 -16 4 -3 15 12 17 11 17 -13 0 -16 -5 -26 -15
-26 -12 0 -13 -4 -4 -18 14 -22 36 -24 43 -5 3 7 12 13 20 13 10 0 13 -6 10
-15 -4 -8 -10 -13 -14 -10 -5 3 -11 1 -14 -4 -7 -10 -19 -9 -59 7 -16 7 -33
12 -38 12 -5 0 -9 5 -9 10 0 6 -4 10 -9 10 -5 0 -7 -9 -4 -20 3 -11 10 -17 16
-13 5 3 7 1 3 -5 -3 -6 -2 -13 4 -17 5 -3 10 -1 10 4 0 15 27 14 36 -1 5 -7 2
-9 -8 -5 -9 3 -19 3 -23 -1 -6 -7 -10 -8 -36 -11 -6 0 -9 -6 -7 -12 2 -6 8
-10 13 -9 6 1 12 -9 15 -22 6 -21 11 -23 78 -24 79 0 81 1 100 33 16 30 15 33
-8 33 -23 0 -26 15 -6 27 26 14 23 38 -4 39 -14 1 -37 2 -52 3 -23 1 -28 6
-28 25 0 32 -14 40 -31 18z m36 -52 c3 -5 -1 -10 -10 -10 -9 0 -13 5 -10 10 3
6 8 10 10 10 2 0 7 -4 10 -10z m68 -29 c-19 -20 -19 -20 -20 0 -1 11 2 17 7
14 5 -3 12 0 15 6 4 5 9 8 12 5 3 -2 -3 -14 -14 -25z m-3 -56 c0 -8 -2 -15 -4
-15 -2 0 -6 7 -10 15 -3 8 -1 15 4 15 6 0 10 -7 10 -15z"/>
<path d="M805 690 c-3 -5 -2 -10 4 -10 5 0 13 5 16 10 3 6 2 10 -4 10 -5 0
-13 -4 -16 -10z"/>
<path d="M890 689 c0 -5 10 -9 22 -9 12 0 18 3 14 7 -10 11 -36 12 -36 2z"/>
<path d="M963 684 c0 -10 4 -11 13 -3 8 7 14 6 17 -1 3 -6 5 -6 3 1 -3 17 -33
20 -33 3z"/>
<path d="M1420 692 c0 -5 7 -9 15 -9 8 0 12 4 9 9 -3 4 -9 8 -15 8 -5 0 -9 -4
-9 -8z"/>
<path d="M2507 682 c-10 -10 -17 -22 -17 -26 0 -5 -15 -22 -34 -40 -33 -31
-56 -65 -56 -85 0 -20 15 -11 32 19 13 22 24 30 46 30 37 0 52 -17 52 -57 0
-34 19 -47 21 -15 8 103 5 142 -7 131 -8 -6 -14 -17 -14 -23 0 -6 -11 -11 -25
-11 -14 0 -25 1 -25 3 0 2 12 23 26 48 27 47 28 56 1 26z"/>
<path d="M405 671 c-3 -5 -2 -12 3 -15 5 -3 9 1 9 9 0 17 -3 19 -12 6z"/>
<path d="M831 664 c0 -11 3 -14 6 -6 3 7 2 16 -1 19 -3 4 -6 -2 -5 -13z"/>
<path d="M1008 658 c-8 -19 16 -45 27 -28 3 5 2 10 -4 10 -5 0 -11 8 -13 18
-3 16 -4 16 -10 0z"/>
<path d="M295 650 l30 -8 -29 -1 c-16 0 -27 -4 -23 -7 8 -9 79 5 73 14 -3 4
-22 8 -43 9 -36 1 -37 1 -8 -7z"/>
<path d="M748 638 c0 -13 -1 -29 -1 -35 1 -7 -3 -11 -7 -8 -5 3 -11 1 -15 -5
-6 -9 7 -14 28 -11 12 2 8 -27 -5 -32 -9 -3 -10 -9 -3 -22 8 -13 25 -17 78
-19 37 0 67 3 67 7 0 5 5 5 10 2 6 -3 10 4 11 17 0 13 3 17 6 10 2 -6 8 -10
13 -7 4 3 6 -5 3 -17 -4 -19 -3 -20 6 -8 6 8 11 11 11 5 0 -6 32 -10 75 -10
80 0 80 0 69 54 -6 26 -10 31 -28 26 -15 -5 -17 -4 -7 3 11 8 11 11 0 16 -8 3
-3 3 11 0 20 -5 23 -4 13 7 -10 10 -21 10 -48 2 -19 -6 -33 -8 -30 -3 14 23
-44 34 -77 14 -7 -4 -8 -3 -4 4 4 7 1 12 -9 12 -9 0 -13 -4 -10 -10 3 -5 0
-10 -9 -10 -8 0 -16 5 -18 12 -3 7 -7 5 -11 -6 -4 -9 -3 -15 1 -12 4 2 14 0
22 -6 12 -8 12 -9 -2 -4 -20 6 -25 -10 -5 -17 6 -3 2 -4 -9 -4 -15 1 -20 6
-16 17 4 11 0 10 -16 -4 -12 -11 -25 -16 -29 -13 -3 4 0 7 7 7 11 0 10 4 -3
17 -16 16 -18 16 -32 -2 -13 -17 -14 -17 -9 -2 5 13 2 16 -12 11 -15 -4 -16
-4 -5 4 8 5 24 9 37 7 13 -1 24 2 24 8 0 5 -9 7 -20 4 -11 -3 -27 1 -35 10
-13 13 -15 12 -17 -9z m235 -25 c-7 -2 -9 -11 -6 -19 3 -8 0 -14 -7 -14 -6 0
-8 5 -5 10 3 6 1 10 -4 10 -22 0 -10 16 12 17 12 0 17 -1 10 -4z m-72 -26
c-10 -9 -11 -8 -5 6 3 10 9 15 12 12 3 -3 0 -11 -7 -18z m33 8 c3 -8 1 -15 -4
-15 -6 0 -10 7 -10 15 0 8 2 15 4 15 2 0 6 -7 10 -15z m-149 -15 c-3 -5 -1
-10 6 -10 16 0 3 -13 -16 -16 -18 -3 -19 8 -3 24 15 15 21 16 13 2z m287 -36
c2 -7 -1 -14 -6 -15 -5 -2 -10 6 -11 19 -2 22 10 19 17 -4z"/>
<path d="M208 633 c6 -2 18 -2 25 0 6 3 1 5 -13 5 -14 0 -19 -2 -12 -5z"/>
<path d="M550 636 c0 -2 7 -6 15 -10 8 -3 15 -1 15 4 0 6 -7 10 -15 10 -8 0
-15 -2 -15 -4z"/>
<path d="M835 630 c3 -5 10 -10 16 -10 5 0 9 5 9 10 0 6 -7 10 -16 10 -8 0
-12 -4 -9 -10z"/>
<path d="M168 623 c7 -3 16 -2 19 1 4 3 -2 6 -13 5 -11 0 -14 -3 -6 -6z"/>
<path d="M2884 578 c-4 -29 -7 -65 -5 -80 2 -22 -1 -26 -18 -23 -12 2 -21 0
-21 -6 0 -10 1 -10 40 -14 59 -6 82 38 29 57 -17 6 -27 13 -22 17 8 6 18 101
10 101 -2 0 -8 -24 -13 -52z m37 -101 c-10 -9 -11 -8 -5 6 3 10 9 15 12 12 3
-3 0 -11 -7 -18z"/>
<path d="M507 614 c-8 -13 20 -41 30 -30 3 3 1 6 -5 6 -6 0 -12 8 -14 18 -2
11 -6 13 -11 6z"/>
<path d="M2352 358 c2 -6 10 -14 16 -16 7 -2 10 2 6 12 -7 18 -28 22 -22 4z"/>
<path d="M2417 344 c-8 -8 3 -34 14 -34 4 0 13 9 19 20 9 17 8 20 -8 20 -10 0
-21 -3 -25 -6z"/>
<path d="M2204 56 c-10 -8 -16 -18 -12 -22 4 -4 14 -1 22 5 8 7 27 16 43 21
l28 8 -31 1 c-16 1 -39 -5 -50 -13z"/>
<path d="M2541 14 c0 -11 3 -14 6 -6 3 7 2 16 -1 19 -3 4 -6 -2 -5 -13z"/>
</g>
</svg>
